<svg width="17" height="17" viewBox="0 0 17 17" fill="none" xmlns="http://www.w3.org/2000/svg">
<path d="M12.6699 5.34117C12.5723 5.09217 12.4551 4.91153 12.2696 4.726C12.084 4.54048 11.9034 4.4233 11.6544 4.32566C11.464 4.25242 11.1808 4.16454 10.6584 4.14013C10.0921 4.11572 9.92609 4.11084 8.49559 4.11084C7.06509 4.11084 6.89909 4.11572 6.33275 4.14013C5.81035 4.16454 5.52718 4.25242 5.33677 4.32566C5.08778 4.4233 4.90713 4.54048 4.72161 4.726C4.53608 4.91153 4.41891 5.09217 4.32126 5.34117C4.24803 5.53157 4.16015 5.81475 4.13574 6.33715C4.11133 6.90349 4.10645 7.06948 4.10645 8.49998C4.10645 9.93048 4.11133 10.0965 4.13574 10.6628C4.16015 11.1852 4.24803 11.4684 4.32126 11.6588C4.41891 11.9078 4.53608 12.0884 4.72161 12.274C4.90713 12.4595 5.08778 12.5767 5.33677 12.6743C5.52718 12.7475 5.81035 12.8354 6.33275 12.8598C6.89909 12.8842 7.06509 12.8891 8.49559 12.8891C9.92609 12.8891 10.0921 12.8842 10.6584 12.8598C11.1808 12.8354 11.464 12.7475 11.6544 12.6743C11.9034 12.5767 12.084 12.4595 12.2696 12.274C12.4551 12.0884 12.5723 11.9078 12.6699 11.6588C12.7431 11.4684 12.831 11.1852 12.8554 10.6628C12.8799 10.0965 12.8847 9.93048 12.8847 8.49998C12.8847 7.06948 12.8799 6.90349 12.8554 6.33715C12.831 5.81475 12.7431 5.53157 12.6699 5.34117ZM8.50047 11.2438C6.98209 11.2438 5.75176 10.0135 5.75176 8.4951C5.75176 6.97672 6.98209 5.74639 8.50047 5.74639C10.0189 5.74639 11.2492 6.97672 11.2492 8.4951C11.2492 10.0135 10.0189 11.2438 8.50047 11.2438ZM11.3566 6.28344C11.0002 6.28344 10.7121 5.99539 10.7121 5.63898C10.7121 5.28258 11.0002 4.99453 11.3566 4.99453C11.713 4.99453 12.001 5.28258 12.001 5.63898C12.001 5.99539 11.713 6.28344 11.3566 6.28344Z" fill="white"/>
<path d="M8.4998 6.71289C7.51358 6.71289 6.71777 7.51358 6.71777 8.49491C6.71777 9.47624 7.51846 10.2769 8.4998 10.2769C9.48113 10.2769 10.2818 9.47624 10.2818 8.49491C10.2818 7.51358 9.48113 6.71289 8.4998 6.71289Z" fill="white"/>
<path d="M8.5 0C3.80327 0 0 3.80327 0 8.5C0 13.1967 3.80327 17 8.5 17C13.1967 17 17 13.1967 17 8.5C17 3.80327 13.1918 0 8.5 0ZM13.8168 10.7068C13.7924 11.278 13.6996 11.6637 13.5678 12.0055C13.4311 12.357 13.2504 12.6548 12.9526 12.9526C12.6548 13.2504 12.357 13.4311 12.0055 13.5678C11.6637 13.6996 11.278 13.7924 10.7068 13.8168C10.1356 13.8412 9.95491 13.8509 8.5 13.8509C7.04509 13.8509 6.86445 13.8461 6.29322 13.8168C5.722 13.7924 5.3363 13.6996 4.99454 13.5678C4.64302 13.4311 4.3452 13.2455 4.04739 12.9526C3.74957 12.6548 3.56893 12.357 3.43222 12.0055C3.3004 11.6637 3.20764 11.278 3.18323 10.7068C3.15882 10.1356 3.14905 9.95491 3.14905 8.5C3.14905 7.04509 3.15393 6.86445 3.18323 6.29322C3.20764 5.722 3.3004 5.3363 3.43222 4.99454C3.56893 4.64302 3.74957 4.3452 4.04739 4.04739C4.3452 3.74957 4.64302 3.56893 4.99454 3.43222C5.3363 3.3004 5.722 3.20764 6.29322 3.18323C6.86445 3.15882 7.04509 3.14905 8.5 3.14905C9.95491 3.14905 10.1356 3.15393 10.7068 3.18323C11.278 3.20764 11.6637 3.3004 12.0055 3.43222C12.357 3.56893 12.6548 3.74957 12.9526 4.04739C13.2504 4.3452 13.4311 4.64302 13.5678 4.99454C13.6996 5.3363 13.7924 5.722 13.8168 6.29322C13.8412 6.86445 13.8509 7.04509 13.8509 8.5C13.8509 9.95491 13.8461 10.1356 13.8168 10.7068Z" fill="white"/>
</svg>
