<svg width="17" height="17" viewBox="0 0 17 17" fill="none" xmlns="http://www.w3.org/2000/svg">
<path d="M5.72461 7.84072H7.32528C7.61675 7.84072 7.77443 7.96973 7.8031 8.19908C7.83655 8.49055 7.66453 8.68645 7.34918 8.68645C6.75191 8.69123 6.15464 8.68645 5.55737 8.68645C5.38536 8.68645 5.21335 8.69123 5.04133 8.68645C4.82632 8.67212 4.61608 8.6339 4.51574 8.40932C4.4154 8.18953 4.48229 7.98885 4.62564 7.80728C5.19423 7.081 5.76761 6.3595 6.33621 5.63322C6.36966 5.59022 6.4031 5.54722 6.43655 5.50421C6.4031 5.4421 6.34577 5.47077 6.30276 5.47077H5.10345C5.01266 5.47077 4.9171 5.46121 4.8311 5.43732C4.64475 5.38954 4.53485 5.24142 4.53007 5.06462C4.53007 4.88783 4.63997 4.73493 4.82154 4.68237C4.90755 4.65848 5.00311 4.64893 5.09389 4.64893H7.06726C7.18194 4.64893 7.30139 4.64893 7.41129 4.69193C7.65975 4.77794 7.76965 5.00729 7.66931 5.25097C7.5833 5.46121 7.43996 5.64278 7.30139 5.82435C6.8188 6.44073 6.33621 7.05233 5.84884 7.66393C5.81061 7.71171 5.77717 7.7595 5.71505 7.84072H5.72461Z" fill="white"/>
<path d="M10.0058 5.89602C10.0966 5.78134 10.1826 5.67622 10.3355 5.64755C10.6269 5.59022 10.8993 5.77656 10.9041 6.07281C10.9136 6.80864 10.9088 7.54925 10.9041 8.28509C10.9041 8.48577 10.7798 8.64345 10.5983 8.70079C10.4071 8.76768 10.2112 8.7199 10.0822 8.55744C10.0201 8.48099 9.99144 8.46666 9.90543 8.53355C9.57096 8.80591 9.18871 8.85369 8.78257 8.7199C8.12319 8.50488 7.85561 7.99362 7.78394 7.36769C7.70749 6.69397 7.93206 6.11581 8.53411 5.76223C9.03581 5.46599 9.5423 5.49465 10.0058 5.89602ZM8.70134 7.24345C8.70134 7.37246 8.74912 7.5397 8.85424 7.68782C9.09315 8.00796 9.5853 8.00796 9.82421 7.68782C10.0297 7.41069 10.0297 6.94721 9.82421 6.6653C9.71431 6.51718 9.56619 6.44073 9.38462 6.43117C8.97847 6.40728 8.69656 6.72264 8.70134 7.24345Z" fill="white"/>
<path d="M12.5665 7.26732C12.5378 6.32125 13.159 5.6093 14.0429 5.58541C14.9842 5.55674 15.6723 6.18746 15.701 7.10964C15.7296 8.04138 15.1563 8.70554 14.2723 8.79154C13.3119 8.88711 12.5474 8.1895 12.5617 7.26732H12.5665ZM13.4935 7.17653C13.4935 7.36766 13.5365 7.53967 13.6511 7.69257C13.8853 8.00793 14.3679 8.00793 14.6068 7.69735C14.8218 7.42022 14.8218 6.9424 14.6068 6.66049C14.4969 6.51237 14.3487 6.43592 14.1672 6.42636C13.7706 6.40725 13.4887 6.70827 13.4887 7.16698V7.17653H13.4935Z" fill="white"/>
<path d="M12.2414 6.5365V8.25185C12.2414 8.57676 11.9499 8.80134 11.6394 8.72011C11.453 8.67233 11.3145 8.47642 11.3145 8.24707V4.79725C11.3192 4.51534 11.5008 4.329 11.7732 4.32422C12.0551 4.32422 12.2414 4.50579 12.2414 4.80203C12.2414 5.38019 12.2414 5.95834 12.2414 6.5365Z" fill="white"/>
<path d="M16.9863 2.43685C16.9863 1.09419 15.8921 0 14.5494 0H2.43685C2.23617 0 2.04027 0.0286688 1.85392 0.0716721C0.941294 0.248463 0.195904 0.955628 0.0477814 1.9447C0.0143344 2.10238 0 2.26962 0 2.43685V13.6225C0 13.7372 0.00955628 13.8518 0.0286688 13.9617C0.0812284 15.1085 0.969962 16.0498 2.12627 16.0976C3.13446 16.1358 4.14265 16.0976 5.15084 16.0976C5.22251 16.0976 5.29896 16.0976 5.37063 16.0976H10.703C12.0314 16.0976 13.3597 16.0976 14.688 16.0976C15.7583 16.0976 16.6279 15.3617 16.8573 14.3679C16.9337 14.129 16.9767 13.8757 16.9767 13.6129V2.43685H16.9863ZM16.9146 2.43685V11.544C16.8477 11.5488 16.8238 11.6061 16.7856 11.6396C16.0641 12.361 15.2327 12.9344 14.301 13.3453C12.0314 14.344 9.71874 14.4156 7.37745 13.6129C7.16243 13.5413 6.95219 13.5317 6.74196 13.5843C6.43138 13.6655 6.12558 13.7563 5.81978 13.8471C4.91193 14.1242 3.99453 14.2532 3.05323 14.0668C2.98634 14.0382 2.93856 14.0047 3.01978 13.9378C3.06757 13.8996 3.12013 13.8662 3.17268 13.8327C3.65528 13.5221 4.1092 13.1733 4.40545 12.6716C4.65391 12.2512 4.61568 12.0027 4.3051 11.6921C2.55631 9.94331 1.78702 7.84571 2.16928 5.37541C2.38429 3.98019 3.02456 2.77132 3.9563 1.72491C4.51534 1.09419 5.18428 0.578155 5.91534 0.148122C5.95356 0.12901 6.00134 0.114675 6.02046 0.0764502H14.5542C15.8586 0.0764502 16.9146 1.1372 16.9146 2.43685Z" fill="white"/>
</svg>
