<svg width="80" height="22" viewBox="0 0 80 22" fill="none" xmlns="http://www.w3.org/2000/svg">
<path d="M12.2174 11.7157C12.1682 12.2059 12.1133 12.6961 12.0697 13.1882C11.9902 14.0948 11.907 15.0014 11.8464 15.9099C11.8275 16.1862 11.7291 16.2827 11.4489 16.2827C7.72978 16.2771 4.01063 16.2809 0.289583 16.279C0.196841 16.279 0.102206 16.2525 0.0037854 16.1711C0.0776006 16.1427 0.149523 16.0973 0.227124 16.0897C1.34003 15.9686 1.88513 15.2929 1.97787 14.2462C2.05168 13.4172 2.16335 12.5844 2.16903 11.7535C2.18607 8.78009 2.30909 5.80477 2.00058 2.83513C1.88513 1.72411 1.39681 0.883756 0.132489 0.800477C0.0889568 0.796692 0.0454248 0.762623 0 0.647169C0.170343 0.63392 0.340686 0.607422 0.511029 0.607422C3.64155 0.607422 6.77018 0.607422 9.9007 0.607422C9.97831 0.607422 10.054 0.607422 10.1316 0.607422C11.1177 0.607422 11.1082 0.607422 11.2275 1.57459C11.3524 2.59097 11.4981 3.60546 11.6325 4.62183C11.6477 4.73161 11.6477 4.84139 11.6552 4.95306C11.625 4.96441 11.5928 4.97577 11.5625 4.98713C11.4565 4.73161 11.3429 4.47988 11.2464 4.22248C10.8243 3.09443 10.1998 2.10265 9.16066 1.46292C8.77455 1.22444 8.28056 1.11656 7.82063 1.05599C7.37017 0.997318 6.90078 1.05978 6.44275 1.09385C5.52857 1.16198 5.04593 1.7544 4.84152 2.56636C4.67686 3.22124 4.57465 3.90261 4.54058 4.57641C4.48948 5.61361 4.52355 6.6527 4.52355 7.69179C4.52355 7.76561 4.54058 7.83942 4.5614 8.02491C5.36769 7.9492 6.1683 7.91513 6.95377 7.79021C7.61243 7.68611 8.00422 7.1713 8.29002 6.62242C8.49254 6.23063 8.59285 5.78584 8.7367 5.36188C8.76698 5.27482 8.7878 5.18586 8.89379 5.10826V11.2198C8.86729 11.2236 8.8389 11.2292 8.8124 11.233C8.78212 11.1081 8.75184 10.9832 8.72345 10.8583C8.38087 9.32897 7.67678 8.51511 6.07367 8.40155C5.57967 8.36559 5.08 8.39587 4.55005 8.39587C4.54058 8.51322 4.52166 8.623 4.52166 8.73467C4.52166 10.0179 4.48948 11.3012 4.5368 12.5825C4.5633 13.2658 4.67496 13.9566 4.84341 14.6191C5.00997 15.2739 5.47936 15.7263 6.18155 15.7566C7.03327 15.7925 7.89634 15.8039 8.74237 15.7093C9.63194 15.6089 10.2452 14.9995 10.7638 14.3068C11.3183 13.5629 11.712 12.7377 12.0035 11.8595C12.0243 11.7971 12.0773 11.7441 12.1171 11.6873C12.1511 11.6967 12.1852 11.7081 12.2193 11.7176L12.2174 11.7157Z" fill="#FEFEFE"/>
<path d="M55.2445 2.05756V6.16661H61.9106C61.9182 6.20636 61.9258 6.2461 61.9333 6.28774C61.8425 6.31424 61.7516 6.34831 61.6589 6.36345C61.0267 6.46755 60.775 6.72306 60.881 7.35712C60.9889 7.99496 61.1876 8.62333 61.3977 9.24035C61.7441 10.2567 62.1302 11.258 62.5011 12.2668C62.6374 12.6359 62.7794 13.0049 62.9459 13.4478C63.0235 13.2926 63.0803 13.2018 63.1182 13.1033C63.6481 11.6781 64.1951 10.2567 64.691 8.82017C64.8519 8.35457 64.92 7.84732 64.9635 7.35333C65.0184 6.72306 64.7856 6.47512 64.1516 6.36534C64.0702 6.35209 63.9926 6.31992 63.9207 6.21771H66.9547C66.9603 6.23853 66.966 6.26124 66.9736 6.28206C66.9036 6.31424 66.8373 6.35966 66.7635 6.37481C66.2392 6.4789 65.891 6.80823 65.6903 7.27573C65.4026 7.94385 65.149 8.62712 64.8916 9.31038C64.2519 11.0081 63.6216 12.7097 62.9838 14.4093C62.5428 15.5828 62.1094 16.7581 61.6513 17.924C61.2595 18.9215 60.8772 19.9322 60.1353 20.7404C59.4671 21.4672 58.1347 21.5826 57.3946 20.9959C56.8401 20.5568 56.736 19.6521 57.1864 19.1884C57.6426 18.719 58.4527 18.7852 58.8293 19.319C58.9467 19.4855 59.064 19.6521 59.187 19.813C59.5542 20.2861 59.9725 20.3088 60.3037 19.8092C60.6274 19.3228 60.881 18.7909 61.1441 18.2666C61.2917 17.9714 61.3598 17.6307 61.5245 17.3468C61.9239 16.6559 61.7668 16.003 61.4923 15.3273C61.1365 14.4509 60.811 13.5614 60.4778 12.6756C59.8911 11.1217 59.3119 9.564 58.7214 8.0101C58.6268 7.76026 58.5038 7.518 58.3637 7.28898C58.0874 6.83852 57.8129 6.45809 57.141 6.57354C56.5467 6.67764 55.9202 6.59436 55.2483 6.59436C55.2483 7.30223 55.254 7.96467 55.2483 8.62712C55.2313 10.5255 55.2086 12.4239 55.1859 14.3222C55.1802 14.8408 55.2161 15.3708 55.7499 15.6112C56.3555 15.8837 56.982 15.8213 57.5461 15.4484C57.7618 15.3064 57.9378 15.1039 58.1328 14.9298C58.1612 14.9487 58.1877 14.9658 58.2161 14.9847C58.0855 15.1853 57.9795 15.4105 57.8167 15.5809C56.7682 16.6862 55.2256 16.7563 54.0389 16.1298C53.3897 15.7872 53.1209 15.208 53.1096 14.5191C53.0869 13.1601 53.1096 11.7993 53.1096 10.4403C53.1096 9.17221 53.1096 7.90411 53.1096 6.56786C52.7026 6.54704 52.2522 6.52244 51.7998 6.49972C51.779 6.46565 51.7601 6.43159 51.7393 6.39752C52.7216 6.1174 53.5733 5.63665 54.0294 4.72437C54.4629 3.85752 54.7903 2.93767 55.1631 2.04053C55.1915 2.04621 55.2199 2.05188 55.2483 2.05567L55.2445 2.05756Z" fill="#FEFEFE"/>
<path d="M42.4291 15.1096C42.1944 15.4787 41.9862 15.8024 41.7799 16.1279C41.7401 16.1166 41.7023 16.1052 41.6625 16.0938C41.6077 14.398 41.5528 12.7002 41.4979 11.0044C41.5357 10.9987 41.5717 10.9911 41.6095 10.9855C41.7155 11.2637 41.8405 11.5362 41.9256 11.8201C42.2285 12.8479 42.6751 13.8094 43.2978 14.6781C44.2877 16.0617 45.8624 16.5348 47.4902 16.0011C48.2548 15.7494 48.6315 15.0737 48.8396 14.3355C49.0289 13.6636 49.0554 12.9747 48.9267 12.2782C48.7753 11.4548 48.2775 10.8889 47.5886 10.4952C46.8466 10.0732 46.0763 9.69842 45.3022 9.33502C44.1969 8.81642 43.1332 8.24293 42.3288 7.29091C41.5319 6.35024 41.301 5.22976 41.4335 4.05439C41.7288 1.42165 44.1533 -0.117113 46.9242 0.456374C47.7343 0.624824 48.4781 0.937119 49.0611 1.5655C49.2655 1.25699 49.4548 0.969295 49.644 0.681605C49.6989 0.694854 49.7538 0.708103 49.8087 0.719459C49.9204 2.17305 50.0302 3.62475 50.1418 5.07834C50.1002 5.0897 50.0604 5.09916 50.0188 5.11052C49.9185 4.85122 49.8106 4.59381 49.7198 4.33073C49.4226 3.45252 49.0119 2.63676 48.4289 1.90807C47.7059 1.00336 46.1634 0.499906 45.0561 0.848163C44.3975 1.05447 43.9622 1.539 43.7597 2.17116C43.5155 2.93013 43.5458 3.71371 43.8278 4.47268C44.0984 5.19948 44.6549 5.66886 45.3079 6.01523C46.4037 6.59439 47.5204 7.13381 48.6277 7.69027C49.3299 8.0442 49.9942 8.46817 50.4522 9.11168C51.1525 10.0978 51.2869 11.2429 51.1961 12.4163C51.0655 14.1311 50.1343 15.3103 48.6504 16.0806C47.352 16.7544 45.9722 16.7941 44.6133 16.3588C43.9603 16.1487 43.3811 15.7115 42.7717 15.3708C42.6619 15.3103 42.5691 15.2194 42.4272 15.1096H42.4291Z" fill="#FEFEFE"/>
<path d="M12.2197 6.2099C12.3106 6.19476 12.4014 6.16826 12.4904 6.16826C13.414 6.16826 14.3377 6.18529 15.2613 6.16826C15.6133 6.16069 15.689 6.30075 15.6871 6.62251C15.672 9.00731 15.6625 11.394 15.6739 13.7788C15.6758 14.18 15.7837 14.5832 15.8518 14.9844C16.0146 15.9459 17.4739 16.4002 18.3672 15.5239C19.0864 14.8179 19.4025 13.9226 19.4366 12.963C19.4972 11.2085 19.4934 9.44831 19.4574 7.69377C19.4366 6.74743 19.1205 6.39349 18.282 6.35564C18.2234 6.35374 18.1685 6.32346 18.1022 6.21936C18.1988 6.20422 18.2934 6.17583 18.3899 6.17583C19.2757 6.17394 20.1596 6.17583 21.0454 6.17583C21.6056 6.17583 21.5924 6.18151 21.5905 6.7285C21.581 9.27986 21.581 11.8331 21.581 14.3845C21.581 14.64 21.5962 14.8974 21.6264 15.1529C21.687 15.6715 22.0144 16.0103 22.5236 16.1049C22.6655 16.1314 22.8094 16.1541 22.9532 16.1787C22.9494 16.2204 22.9456 16.2639 22.9438 16.3056H19.5161V14.3655C19.2397 14.7857 19.0315 15.1226 18.8025 15.4444C18.4164 15.9857 17.8997 16.3491 17.2354 16.4494C16.5067 16.5592 15.7818 16.5686 15.0834 16.2677C14.0954 15.8418 13.6885 15.0166 13.609 14.0211C13.5408 13.1921 13.5673 12.3555 13.5617 11.5227C13.5522 10.2527 13.5522 8.9827 13.5408 7.7127C13.5389 7.51018 13.5143 7.30199 13.4651 7.10514C13.3705 6.71714 13.1547 6.43892 12.7213 6.39349C12.5528 6.37646 12.3882 6.34239 12.2197 6.31589C12.2197 6.28182 12.2197 6.24775 12.2216 6.21368L12.2197 6.2099Z" fill="#FEFEFE"/>
<path d="M40.4977 11.2294C40.5431 13.3152 39.6081 14.8918 37.8384 15.912C36.3054 16.7958 34.7136 16.7599 33.1824 15.7984C32.149 15.1511 31.3843 14.2823 31.0096 13.1164C30.349 11.0591 30.7333 8.57018 32.5635 7.10902C33.737 6.17213 35.0297 5.77845 36.4984 6.06804C37.8422 6.33301 38.8681 7.10902 39.6479 8.21625C40.2819 9.11907 40.5223 10.1373 40.4977 11.2313V11.2294ZM38.2302 11.201C38.2302 10.919 38.2605 10.6332 38.2246 10.3569C38.1545 9.81179 38.1015 9.25534 37.9425 8.73296C37.7665 8.15379 37.5413 7.57273 37.2309 7.05603C36.6801 6.13807 35.1792 5.98286 34.3445 6.66234C33.6972 7.19041 33.419 7.90206 33.2524 8.6705C33.1332 9.21938 33.0499 9.77962 32.9969 10.3399C32.8398 11.9733 33.031 13.5688 33.7256 15.0602C33.9092 15.4558 34.2991 15.8438 34.6928 16.0388C35.8681 16.6255 37.0757 16.0937 37.5716 14.8748C38.0504 13.6956 38.2227 12.4597 38.234 11.1991L38.2302 11.201Z" fill="#FEFEFE"/>
<path d="M66.2201 0.0302832C66.3261 0.018927 66.434 0 66.54 0C67.3992 0 68.2585 0 69.1178 0C69.6175 0 69.6175 0.0018927 69.6156 0.511028C69.608 4.37024 69.5948 8.23134 69.5929 12.0906C69.5929 12.9612 69.627 13.8337 69.6421 14.7044C69.6553 15.4671 69.9449 15.9952 70.8042 16.1088C70.8667 16.1163 70.9216 16.175 70.9651 16.2734H66.0176C66.1274 16.1939 66.1747 16.1296 66.2315 16.122C67.2573 15.9819 67.3273 15.4425 67.475 14.6343C67.5317 14.322 67.5185 13.9946 67.5185 13.6747C67.5185 9.72468 67.5128 5.77462 67.5071 1.82645C67.5071 1.711 67.5033 1.59554 67.4958 1.48009C67.4504 0.662444 67.2327 0.393681 66.451 0.183592C66.3715 0.162772 66.2939 0.130596 66.2144 0.102206C66.2144 0.0776006 66.2163 0.0548882 66.2182 0.0302832H66.2201Z" fill="#FEFEFE"/>
<path d="M73.5677 10.599C73.5848 12.117 73.6188 13.5611 74.4289 14.85C74.7052 15.291 75.0838 15.6109 75.5986 15.7169C76.5279 15.908 77.4364 15.8986 78.2332 15.2816C78.7234 14.903 78.9903 14.3617 79.2382 13.8147C79.3329 13.6065 79.3953 13.3813 79.4956 13.175C79.5297 13.1068 79.6319 13.0709 79.7038 13.0198C79.7284 13.0974 79.7833 13.1807 79.772 13.2526C79.6319 14.0399 79.2704 14.7175 78.7537 15.3232C77.2604 17.072 74.2604 16.6765 72.9526 15.6374C72.3905 15.1926 71.976 14.6153 71.7242 13.9491C71.0561 12.1737 71.0164 10.3605 71.7772 8.62683C72.5684 6.82119 74.0731 5.76507 76.3424 6.00165C77.76 6.14928 78.8408 6.80226 79.5221 8.05145C79.9177 8.77446 80.0237 9.57696 79.9537 10.4003C79.931 10.669 79.7285 10.5971 79.577 10.5971C77.7317 10.6009 75.8844 10.599 74.039 10.5971C73.9008 10.5971 73.7627 10.5971 73.5677 10.5971V10.599ZM73.5696 10.2545C74.0806 10.2545 74.5519 10.2583 75.0232 10.2545C75.7027 10.247 76.3822 10.2413 77.0597 10.2167C77.4477 10.2016 77.6673 9.982 77.6919 9.58453C77.7411 8.78392 77.7089 7.99656 77.3247 7.26219C76.7172 6.10007 75.0876 5.94109 74.3248 7.00857C73.6453 7.9606 73.6169 9.08675 73.5677 10.2545H73.5696Z" fill="#FEFEFE"/>
<path d="M23.2589 6.21194C23.3611 6.19869 23.4652 6.17408 23.5674 6.17408C24.4513 6.17219 25.3371 6.18544 26.221 6.16841C26.5427 6.16273 26.6506 6.28008 26.643 6.59426C26.626 7.22075 26.6374 7.84723 26.6374 8.54185C26.8323 8.14817 26.9932 7.8018 27.1711 7.46301C27.737 6.38985 28.884 5.80501 29.9742 6.02645C30.8505 6.20437 31.2707 7.45733 30.6821 8.1387C30.1824 8.71598 29.2455 8.59863 28.8632 7.91158C28.8064 7.81127 28.7875 7.68256 28.7136 7.60118C28.5603 7.43084 28.3843 7.16397 28.2121 7.16018C28.0077 7.15639 27.7484 7.34566 27.6007 7.52358C26.9515 8.30148 26.6828 9.24215 26.6657 10.2301C26.6374 11.7538 26.643 13.2774 26.6922 14.801C26.7225 15.7284 26.9497 15.9272 27.8657 16.1335C27.9187 16.1448 27.9679 16.1846 28.0039 16.2735H23.1548L23.1396 16.1978C23.2248 16.1732 23.31 16.1448 23.3971 16.1259C24.1049 15.9707 24.3926 15.6508 24.457 14.9202C24.4872 14.5758 24.51 14.2294 24.51 13.883C24.51 11.8825 24.5024 9.88377 24.4948 7.88319C24.4948 7.70338 24.4854 7.52358 24.4683 7.34566C24.4115 6.793 24.1655 6.52423 23.6261 6.40689C23.5012 6.38039 23.3781 6.34443 23.2532 6.31225C23.2551 6.28008 23.2589 6.24601 23.2608 6.21383L23.2589 6.21194Z" fill="#FEFEFE"/>
</svg>
