<svg width="17" height="17" viewBox="0 0 17 17" fill="none" xmlns="http://www.w3.org/2000/svg">
<path d="M7.36719 10.1988L10.3112 8.4998L7.36719 6.80078V10.1988Z" fill="white"/>
<path d="M8.5 0C3.80327 0 0 3.80327 0 8.5C0 13.1967 3.80327 17 8.5 17C13.1967 17 17 13.1967 17 8.5C17 3.80327 13.1918 0 8.5 0ZM13.9291 11.2243C13.7972 11.7125 13.4164 12.0933 12.9282 12.2252C12.0445 12.4644 8.5 12.4644 8.5 12.4644C8.5 12.4644 4.95549 12.4644 4.0718 12.2252C3.58357 12.0933 3.19787 11.7125 3.07094 11.2243C2.83171 10.3406 2.83171 8.49512 2.83171 8.49512C2.83171 8.49512 2.83171 6.64963 3.07094 5.76594C3.20276 5.27771 3.58357 4.89202 4.0718 4.76508C4.95549 4.53073 8.5 4.53073 8.5 4.53073C8.5 4.53073 12.0445 4.53073 12.9282 4.76508C13.4164 4.8969 13.8021 5.27771 13.9291 5.76594C14.1683 6.64963 14.1683 8.49512 14.1683 8.49512C14.1683 8.49512 14.1683 10.3406 13.9291 11.2243Z" fill="white"/>
</svg>
