<svg width="17" height="17" viewBox="0 0 17 17" fill="none" xmlns="http://www.w3.org/2000/svg">
<path d="M8.5 0C3.80327 0 0 3.80327 0 8.5C0 13.1967 3.80327 17 8.5 17C13.1967 17 17 13.1967 17 8.5C17 3.80327 13.1918 0 8.5 0ZM5.69271 13.143C5.08731 13.1381 4.48191 13.1381 3.87651 13.143C3.77886 13.143 3.74957 13.1186 3.74957 13.021V6.55686C3.74957 6.46898 3.7691 6.43481 3.86674 6.43481C4.48191 6.43481 5.09219 6.43969 5.70735 6.43481C5.82453 6.43481 5.83917 6.47875 5.83917 6.58127V12.9917C5.83917 13.1088 5.80988 13.1479 5.68782 13.143H5.69271ZM4.79925 5.51206C4.14015 5.51206 3.59334 4.96525 3.59334 4.31103C3.59334 3.65681 4.13527 3.10023 4.80414 3.10023C5.473 3.10023 6.01005 3.64216 6.01005 4.30126C6.01005 4.96037 5.46812 5.51206 4.80414 5.51206H4.79925ZM13.6654 13.0063C13.6654 13.1137 13.6361 13.143 13.5287 13.143C12.9233 13.1381 12.3179 13.1381 11.7125 13.143C11.6051 13.143 11.5807 13.1088 11.5856 13.0112V9.66198C11.5856 9.38369 11.5661 9.10052 11.4879 8.83199C11.3415 8.32912 10.9851 8.07524 10.4578 8.10454C9.74009 8.1436 9.36904 8.49512 9.27628 9.22746C9.25675 9.40322 9.2421 9.57409 9.2421 9.74986V13.0112C9.2421 13.1186 9.21769 13.1528 9.1054 13.1528C8.49512 13.1479 7.88484 13.1528 7.27944 13.1528C7.18179 13.1528 7.1525 13.1284 7.1525 13.0307V6.57639C7.1525 6.46898 7.18667 6.44457 7.2892 6.44457H9.02728C9.13469 6.44457 9.1591 6.47875 9.1591 6.58127C9.15422 6.84003 9.1591 7.09391 9.1591 7.35267C9.30069 7.19644 9.41298 7.03532 9.55945 6.9035C9.99885 6.48851 10.5213 6.27858 11.1315 6.28346C11.4684 6.28346 11.7955 6.31275 12.1177 6.40551C12.855 6.62033 13.2846 7.12809 13.4897 7.84578C13.641 8.38771 13.6703 8.9394 13.6703 9.49598V13.0161V13.0063H13.6654Z" fill="white"/>
</svg>
